<?xml version="1.0" encoding="utf-8"?>
<!-- Generator: Adobe Illustrator 15.1.0, SVG Export Plug-In . SVG Version: 6.00 Build 0)  -->
<!DOCTYPE svg PUBLIC "-//W3C//DTD SVG 1.1//EN" "http://www.w3.org/Graphics/SVG/1.1/DTD/svg11.dtd">
<svg version="1.1" id="Layer_1" xmlns="http://www.w3.org/2000/svg" xmlns:xlink="http://www.w3.org/1999/xlink" x="0px" y="0px"
	 width="731px" height="665px" viewBox="0 0 731 665" enable-background="new 0 0 731 665" xml:space="preserve">
<g>
	<g>
		<g>
			<circle fill="#999999" cx="411.678" cy="193.452" r="9.5"/>
			<circle fill="#999999" cx="477.678" cy="127.452" r="9.5"/>
			<circle fill="#999999" cx="433.678" cy="171.452" r="9.5"/>
			<circle fill="#999999" cx="169.678" cy="215.452" r="9.5"/>
			<circle fill="#999999" cx="191.678" cy="237.452" r="9.5"/>
			<circle fill="#999999" cx="213.678" cy="259.452" r="9.5"/>
			<circle fill="#999999" cx="235.678" cy="281.452" r="9.5"/>
			<circle fill="#999999" cx="323.678" cy="281.452" r="9.5"/>
			<circle fill="#999999" cx="389.678" cy="215.452" r="9.5"/>
			<circle fill="#999999" cx="367.678" cy="237.452" r="9.5"/>
			<circle fill="#999999" cx="345.678" cy="259.452" r="9.5"/>
			<circle fill="#999999" cx="631.678" cy="281.452" r="9.5"/>
			<circle fill="#999999" cx="103.678" cy="325.452" r="9.5"/>
			<circle fill="#999999" cx="125.678" cy="347.452" r="9.5"/>
			<circle fill="#999999" cx="147.678" cy="369.452" r="9.5"/>
			<circle fill="#999999" cx="235.678" cy="369.452" r="9.5"/>
			<circle fill="#999999" cx="257.678" cy="303.452" r="9.5"/>
			<circle fill="#999999" cx="301.678" cy="303.452" r="9.5"/>
			<circle fill="#999999" cx="257.678" cy="347.452" r="9.5"/>
			<circle fill="#999999" cx="301.678" cy="347.452" r="9.5"/>
			<circle fill="#999999" cx="323.678" cy="369.452" r="9.5"/>
			<circle fill="#999999" cx="455.678" cy="369.452" r="9.5"/>
			<circle fill="#999999" cx="499.678" cy="369.452" r="9.5"/>
			<circle fill="#999999" cx="587.678" cy="325.452" r="9.5"/>
			<circle fill="#999999" cx="565.678" cy="347.452" r="9.5"/>
			<circle fill="#999999" cx="543.678" cy="369.452" r="9.5"/>
			<circle fill="#999999" cx="169.678" cy="391.452" r="9.5"/>
			<circle fill="#999999" cx="213.678" cy="391.452" r="9.5"/>
			<circle fill="#999999" cx="191.678" cy="413.452" r="9.5"/>
			<circle fill="#999999" cx="213.678" cy="435.452" r="9.5"/>
			<circle fill="#999999" cx="235.678" cy="457.452" r="9.5"/>
			<circle fill="#999999" cx="345.678" cy="391.452" r="9.5"/>
			<circle fill="#999999" cx="367.678" cy="413.452" r="9.5"/>
			<circle fill="#999999" cx="411.678" cy="413.452" r="9.5"/>
			<circle fill="#999999" cx="389.678" cy="435.452" r="9.5"/>
			<circle fill="#999999" cx="367.678" cy="457.452" r="9.5"/>
			<circle fill="#999999" cx="411.678" cy="457.452" r="9.5"/>
			<circle fill="#999999" cx="433.678" cy="391.452" r="9.5"/>
			<circle fill="#999999" cx="257.678" cy="479.452" r="9.5"/>
			<circle fill="#999999" cx="279.678" cy="501.452" r="9.5"/>
			<circle fill="#999999" cx="323.678" cy="501.452" r="9.5"/>
			<circle fill="#999999" cx="301.678" cy="523.452" r="9.5"/>
			<circle fill="#999999" cx="323.678" cy="545.452" r="9.5"/>
			<circle fill="#999999" cx="345.678" cy="479.452" r="9.5"/>
			<circle fill="#999999" cx="433.678" cy="479.452" r="9.5"/>
			<circle fill="#999999" cx="455.678" cy="501.452" r="9.5"/>
			<circle fill="#999999" cx="477.678" cy="523.452" r="9.5"/>
			<circle fill="#999999" cx="499.678" cy="545.452" r="9.5"/>
			<circle fill="#999999" cx="235.678" cy="589.452" r="9.5"/>
			<circle fill="#999999" cx="257.678" cy="567.452" r="9.5"/>
			<circle fill="#999999" cx="345.678" cy="567.452" r="9.5"/>
			<circle fill="#999999" cx="367.678" cy="589.452" r="9.5"/>
			<circle fill="#999999" cx="389.678" cy="611.452" r="9.5"/>
			<circle fill="#999999" cx="411.678" cy="633.452" r="9.5"/>
			<circle fill="#999999" cx="433.678" cy="611.452" r="9.5"/>
			<circle fill="#999999" cx="477.678" cy="611.452" r="9.5"/>
			<circle fill="#999999" cx="521.678" cy="611.452" r="9.5"/>
			<circle fill="#999999" cx="433.678" cy="655.452" r="9.5"/>
		</g>
		<g>
			<circle fill="#807900" cx="345.678" cy="39.452" r="9.5"/>
			<circle fill="#807900" cx="367.678" cy="61.452" r="9.5"/>
			<circle fill="#807900" cx="389.678" cy="83.452" r="9.5"/>
			<circle fill="#807900" cx="411.678" cy="105.452" r="9.5"/>
			<circle fill="#807900" cx="433.678" cy="127.452" r="9.5"/>
			<circle fill="#FFF200" cx="455.678" cy="149.452" r="9.5"/>
			<circle fill="#807900" cx="477.678" cy="171.452" r="9.5"/>
			<circle fill="#807900" cx="499.678" cy="193.452" r="9.5"/>
			<circle fill="#76C043" cx="279.678" cy="281.452" r="9.5"/>
			<circle fill="#807900" cx="521.678" cy="215.452" r="9.5"/>
			<circle fill="#807900" cx="543.678" cy="237.452" r="9.5"/>
			<circle fill="#807900" cx="565.678" cy="259.452" r="9.5"/>
			<circle fill="#807900" cx="587.678" cy="281.452" r="9.5"/>
			<circle fill="#255667" cx="81.678" cy="347.452" r="9.5"/>
			<circle fill="#255667" cx="103.678" cy="369.452" r="9.5"/>
			<circle fill="#FFFFFF" cx="279.678" cy="325.452" r="9.5"/>
			<circle fill="#FFF200" cx="609.678" cy="303.452" r="9.5"/>
			<circle fill="#807900" cx="631.678" cy="325.452" r="9.5"/>
			<circle fill="#807900" cx="653.678" cy="347.452" r="9.5"/>
			<circle fill="#807900" cx="675.678" cy="369.452" r="9.5"/>
			<circle fill="#255667" cx="125.678" cy="391.452" r="9.5"/>
			<circle fill="#255667" cx="147.678" cy="413.452" r="9.5"/>
			<circle fill="#255667" cx="169.678" cy="435.452" r="9.5"/>
			<circle fill="#255667" cx="191.678" cy="457.452" r="9.5"/>
			<circle fill="#255667" cx="213.678" cy="479.452" r="9.5"/>
			<circle fill="#255667" cx="235.678" cy="501.452" r="9.5"/>
			<circle fill="#255667" cx="257.678" cy="523.452" r="9.5"/>
			<circle fill="#6DBCD7" cx="279.678" cy="545.452" r="9.5"/>
			<circle fill="#255667" cx="301.678" cy="567.452" r="9.5"/>
			<circle fill="#255667" cx="323.678" cy="589.452" r="9.5"/>
			<circle fill="#255667" cx="345.678" cy="611.452" r="9.5"/>
			<circle fill="#255667" cx="367.678" cy="633.452" r="9.5"/>
		</g>
	</g>
	<g>
		<g>
			<path fill="#FFF200" d="M306.43,7.625l5.984-5.984l-2.58,0.047l0.035-1.616l4.485-0.023l1.186,1.186l-7.751,7.751L306.43,7.625z"
				/>
			<path fill="#FFF200" d="M314.706,8.162c1.952-1.952,4.927-3.067,7.1-0.895c2.173,2.173,1.057,5.147-0.895,7.1
				s-4.938,3.08-7.111,0.906C311.627,13.101,312.754,10.114,314.706,8.162z M319.529,12.985c1.476-1.477,2.335-3.243,1.069-4.51
				c-1.266-1.266-3.032-0.406-4.508,1.07c-1.476,1.476-2.347,3.253-1.081,4.52C316.275,15.332,318.053,14.461,319.529,12.985z"/>
			<path fill="#FFF200" d="M320.915,22.11l5.984-5.984l-2.58,0.047l0.035-1.616l4.485-0.023l1.186,1.186l-7.751,7.751L320.915,22.11
				z"/>
		</g>
		<g>
			<path fill="#FFFFFF" d="M70.682,123.582l5.752-5.752l-8.134,3.369l-0.581-0.581l3.381-8.122l-5.752,5.752l-1.359-1.359
				l7.75-7.751l1.917,1.917l-2.998,7.204l7.216-2.985l1.917,1.917l-7.75,7.751L70.682,123.582z"/>
			<path fill="#FFFFFF" d="M74.858,127.758l7.75-7.75l1.36,1.359l-7.75,7.751L74.858,127.758z"/>
			<path fill="#FFFFFF" d="M79.032,131.932l7.75-7.751l2.882,2.882c2.417,2.417,2.452,5.659,0.175,7.937
				c-2.278,2.278-5.508,2.231-7.925-0.186L79.032,131.932z M88.444,133.604c1.499-1.499,1.755-3.613,0.023-5.345l-1.522-1.522
				l-5.357,5.357l1.522,1.521C84.795,135.302,86.98,135.069,88.444,133.604z"/>
			<path fill="#FFFFFF" d="M88.449,141.349l7.75-7.751l2.882,2.882c2.417,2.417,2.452,5.659,0.174,7.937
				c-2.278,2.277-5.508,2.23-7.925-0.186L88.449,141.349z M97.861,143.021c1.499-1.499,1.754-3.613,0.023-5.345l-1.522-1.522
				l-5.357,5.357l1.522,1.521C94.212,144.718,96.397,144.486,97.861,143.021z"/>
			<path fill="#FFFFFF" d="M97.866,150.766l7.75-7.751l1.359,1.359l-6.554,6.554l3.416,3.416l-1.197,1.197L97.866,150.766z"/>
			<path fill="#FFFFFF" d="M105.038,157.938l7.75-7.75l5.31,5.31l-1.197,1.197l-3.95-3.95l-2.01,2.01l3.869,3.869l-1.197,1.197
				l-3.869-3.869l-2.15,2.149l3.95,3.95l-1.197,1.197L105.038,157.938z"/>
			<path fill="#FFFFFF" d="M112.909,165.809l7.75-7.751l5.311,5.311l-1.197,1.197l-3.951-3.951l-2.01,2.011l3.869,3.869
				l-1.197,1.196l-3.869-3.869l-3.347,3.347L112.909,165.809z"/>
			<path fill="#FFFFFF" d="M120.605,173.505l7.75-7.751l1.359,1.359l-7.75,7.751L120.605,173.505z"/>
			<path fill="#FFFFFF" d="M124.778,177.678l7.75-7.75l5.311,5.311l-1.197,1.196l-3.951-3.95l-2.01,2.01l3.869,3.869l-1.197,1.197
				l-3.869-3.869l-2.15,2.149l3.951,3.951l-1.197,1.196L124.778,177.678z"/>
			<path fill="#FFFFFF" d="M132.649,185.549l7.75-7.751l1.36,1.36l-6.554,6.554l3.416,3.416l-1.197,1.196L132.649,185.549z"/>
			<path fill="#FFFFFF" d="M139.822,192.722l7.75-7.751l2.881,2.882c2.417,2.417,2.452,5.659,0.175,7.937
				c-2.278,2.277-5.508,2.23-7.925-0.187L139.822,192.722z M149.234,194.395c1.499-1.499,1.754-3.613,0.022-5.346l-1.521-1.521
				l-5.357,5.357l1.521,1.521C145.585,196.091,147.77,195.859,149.234,194.395z"/>
		</g>
		<g>
			<path fill="#FFFFFF" d="M510.212,104.211l-7.228-4.206l4.218,7.216l-1.452,1.453l-9.97-5.531l1.522-1.522l7.482,4.462
				l-4.368-7.576l1.08-1.08l7.576,4.368l-4.474-7.472l1.522-1.521l5.543,9.958L510.212,104.211z"/>
			<path fill="#FFFFFF" d="M515.946,98.478l-7.75-7.751l1.359-1.359l7.75,7.75L515.946,98.478z"/>
			<path fill="#FFFFFF" d="M520.12,94.304l-7.751-7.75l1.359-1.36l6.555,6.555l3.416-3.417l1.196,1.196L520.12,94.304z"/>
			<path fill="#FFFFFF" d="M527.293,87.131l-7.751-7.751l1.36-1.359l6.554,6.555l3.416-3.417l1.196,1.196L527.293,87.131z"/>
			<path fill="#FFFFFF" d="M529.898,76.785c-2.312-2.312-2.369-5.646-0.045-7.971c2.323-2.324,5.658-2.267,7.971,0.046
				s2.37,5.647,0.047,7.972C535.547,79.156,532.211,79.098,529.898,76.785z M536.43,70.255c-1.604-1.604-3.811-1.789-5.368-0.231
				c-1.568,1.568-1.372,3.764,0.231,5.367c1.593,1.593,3.801,1.802,5.369,0.233C538.22,74.066,538.021,71.847,536.43,70.255z"/>
			<path fill="#FFFFFF" d="M549.867,64.557l-7.228-4.206l4.218,7.216l-1.452,1.452l-9.97-5.531l1.521-1.522l7.483,4.463
				l-4.369-7.577l1.081-1.08l7.576,4.369l-4.474-7.472l1.522-1.522l5.543,9.958L549.867,64.557z"/>
		</g>
		<g>
			<path fill="#999999" d="M655.286,261.139l-4.694-4.694l1.372-1.371l4.647,4.647c1.232,1.232,2.72,1.349,4.021,0.047
				c1.29-1.289,1.174-2.776-0.059-4.009l-4.647-4.647l1.371-1.372l4.683,4.683c1.929,1.929,2.104,4.312-0.14,6.554
				C659.586,263.23,657.191,263.044,655.286,261.139z"/>
			<path fill="#999999" d="M673.267,249.27l-9.574-1.487l5.531,5.531l-1.36,1.359l-7.75-7.75l1.395-1.394l9.343,1.417l-5.38-5.38
				l1.359-1.359l7.75,7.75L673.267,249.27z"/>
			<path fill="#999999" d="M677.396,245.141l-7.75-7.75l1.359-1.359l7.75,7.75L677.396,245.141z"/>
			<path fill="#999999" d="M683.801,238.736l-10.794-4.706l1.545-1.545l8.622,3.927l-3.927-8.622l1.545-1.545l4.706,10.794
				L683.801,238.736z"/>
			<path fill="#999999" d="M690.557,231.98l-7.75-7.75l5.311-5.311l1.196,1.196l-3.951,3.951l2.011,2.011l3.869-3.87l1.197,1.197
				l-3.869,3.87l2.149,2.149l3.951-3.951l1.196,1.196L690.557,231.98z"/>
			<path fill="#999999" d="M702.854,219.683l-4.612-1.173l-1.349,1.348l2.893,2.893l-1.359,1.36l-7.75-7.75l3.405-3.405
				c1.533-1.534,3.532-1.534,4.962-0.104c1.382,1.382,1.22,3.032,0.441,4.113l4.938,1.15L702.854,219.683z M697.649,214.245
				c-0.744-0.744-1.79-0.675-2.558,0.092l-1.859,1.859l2.463,2.463l1.859-1.859C698.322,216.033,698.393,214.988,697.649,214.245z"
				/>
			<path fill="#999999" d="M705.299,215.055l-0.291-1.802c1.104,0.035,2.441-0.302,3.521-1.382c1.116-1.116,1.011-2.104,0.499-2.616
				c-1.626-1.626-5.136,3.905-7.994,1.047c-1.278-1.278-1.14-3.394,0.557-5.091c1.209-1.208,2.568-1.801,3.986-1.823l0.232,1.789
				c-1.209,0-2.312,0.546-3.126,1.359c-0.802,0.802-0.929,1.697-0.348,2.278c1.44,1.44,5.055-3.963,7.948-1.069
				c1.29,1.29,1.487,3.3-0.604,5.392C708.25,214.566,706.716,215.101,705.299,215.055z"/>
			<path fill="#999999" d="M714.958,207.578l-7.75-7.75l1.36-1.359l7.75,7.75L714.958,207.578z"/>
			<path fill="#999999" d="M720.979,201.558l-6.554-6.554l-2.348,2.347l-1.196-1.196l6.055-6.054l1.196,1.196l-2.348,2.347
				l6.554,6.554L720.979,201.558z"/>
			<path fill="#999999" d="M729.198,193.338l-3.218-3.218l-7.541-1.522l1.557-1.557l5.46,1.184l-1.207-5.437l1.558-1.558l1.534,7.53
				l3.218,3.218L729.198,193.338z"/>
		</g>
		<g>
			<path fill="#999999" d="M550.542,616.581V605.62h7.51v1.692h-5.587v2.843h5.472v1.693h-5.472v3.04h5.587v1.692H550.542z"/>
			<path fill="#999999" d="M571.139,616.581v-8.135l-3.369,8.135h-0.821l-3.353-8.135v8.135h-1.923V605.62h2.711l2.975,7.214
				l2.991-7.214h2.712v10.961H571.139z"/>
			<path fill="#999999" d="M577.045,616.581V605.62h5.39c2.005,0,3.123,1.249,3.123,2.793c0,1.381-0.888,2.301-1.906,2.515
				c1.167,0.181,2.12,1.348,2.12,2.695c0,1.692-1.135,2.958-3.188,2.958H577.045z M583.585,608.742c0-0.821-0.559-1.43-1.544-1.43
				h-3.073v2.843h3.073C583.026,610.155,583.585,609.563,583.585,608.742z M583.799,613.36c0-0.822-0.575-1.512-1.676-1.512h-3.155
				v3.04h3.155C583.175,614.889,583.799,614.313,583.799,613.36z"/>
			<path fill="#999999" d="M597.018,616.581l-0.806-2.104h-5.028l-0.806,2.104h-2.186l4.306-10.961h2.399l4.306,10.961H597.018z
				 M593.697,607.559l-1.972,5.227h3.944L593.697,607.559z"/>
			<path fill="#999999" d="M608.312,616.581l-2.432-4.092h-1.906v4.092h-1.923V605.62h4.814c2.17,0,3.583,1.413,3.583,3.435
				c0,1.955-1.282,3.007-2.597,3.221l2.679,4.306H608.312z M608.478,609.055c0-1.052-0.789-1.742-1.874-1.742h-2.629v3.483h2.629
				C607.688,610.796,608.478,610.106,608.478,609.055z"/>
			<path fill="#999999" d="M613.527,611.108c0-3.369,2.515-5.669,5.752-5.669c2.219,0,3.582,1.149,4.404,2.465l-1.644,0.838
				c-0.526-0.904-1.578-1.594-2.761-1.594c-2.17,0-3.78,1.659-3.78,3.96s1.61,3.961,3.78,3.961c1.183,0,2.234-0.674,2.761-1.595
				l1.644,0.839c-0.838,1.314-2.186,2.465-4.404,2.465C616.042,616.778,613.527,614.478,613.527,611.108z"/>
			<path fill="#999999" d="M634.47,616.581l-0.806-2.104h-5.028l-0.806,2.104h-2.186l4.306-10.961h2.399l4.306,10.961H634.47z
				 M631.149,607.559l-1.972,5.227h3.944L631.149,607.559z"/>
			<path fill="#999999" d="M639.504,616.581V605.62h4.075c3.418,0,5.735,2.268,5.735,5.488c0,3.222-2.317,5.473-5.735,5.473H639.504
				z M647.343,611.108c0-2.12-1.314-3.796-3.764-3.796h-2.152v7.576h2.152C645.962,614.889,647.343,613.18,647.343,611.108z"/>
			<path fill="#999999" d="M652.821,616.581V605.62h7.51v1.692h-5.587v2.843h5.472v1.693h-5.472v3.04h5.587v1.692H652.821z"/>
			<path fill="#999999" d="M670.212,616.581l-2.432-4.092h-1.906v4.092h-1.923V605.62h4.814c2.17,0,3.583,1.413,3.583,3.435
				c0,1.955-1.282,3.007-2.597,3.221l2.679,4.306H670.212z M670.377,609.055c0-1.052-0.789-1.742-1.874-1.742h-2.629v3.483h2.629
				C669.588,610.796,670.377,610.106,670.377,609.055z"/>
			<path fill="#999999" d="M675.428,611.108c0-3.271,2.317-5.669,5.604-5.669c3.287,0,5.604,2.398,5.604,5.669
				s-2.317,5.67-5.604,5.67C677.745,616.778,675.428,614.379,675.428,611.108z M684.663,611.108c0-2.268-1.43-3.96-3.632-3.96
				c-2.218,0-3.632,1.692-3.632,3.96c0,2.252,1.414,3.961,3.632,3.961C683.233,615.069,684.663,613.36,684.663,611.108z"/>
		</g>
		<g>
			<path fill="#999999" d="M51.918,281.767l0.918-2.057l-3.556-3.556l-2.057,0.917l-1.545-1.545l10.795-4.706l1.696,1.696
				l-4.706,10.795L51.918,281.767z M55.95,273.039l-5.089,2.302l2.789,2.789L55.95,273.039z"/>
			<path fill="#999999" d="M55.479,285.326l7.75-7.75l1.359,1.359l-6.554,6.554l3.416,3.416l-1.197,1.196L55.479,285.326z"/>
			<path fill="#999999" d="M69.344,299.192l5.752-5.752l-8.134,3.369l-0.581-0.58l3.381-8.123l-5.752,5.752l-1.36-1.359l7.75-7.751
				l1.917,1.917l-2.998,7.205l7.216-2.986l1.918,1.918l-7.75,7.75L69.344,299.192z"/>
			<path fill="#999999" d="M78.948,308.796l0.917-2.057l-3.555-3.556l-2.057,0.918l-1.545-1.546l10.795-4.706l1.697,1.697
				l-4.706,10.795L78.948,308.796z M82.98,300.069l-5.09,2.301l2.789,2.789L82.98,300.069z"/>
		</g>
		<g>
			<path fill="#528DA1" d="M2.165,265.885c2.382-2.382,5.787-2.23,8.076,0.059c1.569,1.568,1.72,3.346,1.372,4.857l-1.755-0.569
				c0.267-1.012,0.011-2.243-0.825-3.079c-1.535-1.535-3.847-1.5-5.474,0.127s-1.662,3.938-0.127,5.474
				c0.836,0.836,2.056,1.104,3.079,0.825l0.569,1.755c-1.522,0.337-3.289,0.197-4.857-1.372
				C-0.065,271.672-0.217,268.268,2.165,265.885z"/>
			<path fill="#528DA1" d="M13.104,284.563l0.917-2.058l-3.556-3.556l-2.057,0.918l-1.545-1.545l10.795-4.707l1.697,1.697
				l-4.707,10.795L13.104,284.563z M17.136,275.835l-5.089,2.302l2.789,2.789L17.136,275.835z"/>
			<path fill="#528DA1" d="M16.664,288.123l7.751-7.751l1.36,1.359l-6.554,6.555l3.416,3.416l-1.197,1.196L16.664,288.123z"/>
			<path fill="#528DA1" d="M24.521,295.98l6.554-6.554l-2.347-2.348l1.197-1.197l6.055,6.055l-1.197,1.197l-2.348-2.348
				l-6.554,6.554L24.521,295.98z"/>
			<path fill="#528DA1" d="M34.972,306.431l1.174-4.612l-1.348-1.349l-2.894,2.894l-1.359-1.359l7.751-7.751l3.404,3.404
				c1.534,1.534,1.534,3.533,0.104,4.962c-1.383,1.383-3.033,1.221-4.114,0.442L36.541,308L34.972,306.431z M40.411,301.226
				c0.744-0.744,0.673-1.79-0.094-2.557l-1.859-1.859l-2.463,2.464l1.859,1.858C38.621,301.899,39.667,301.969,40.411,301.226z"/>
			<path fill="#528DA1" d="M44.435,315.894l0.918-2.057l-3.556-3.556l-2.057,0.918l-1.545-1.546l10.796-4.706l1.696,1.696
				l-4.706,10.796L44.435,315.894z M48.467,307.166l-5.089,2.302l2.789,2.789L48.467,307.166z"/>
			<path fill="#528DA1" d="M47.995,319.454l7.751-7.751l1.359,1.359l-7.751,7.751L47.995,319.454z"/>
			<path fill="#528DA1" d="M57.571,329.03l1.488-9.574l-5.531,5.531l-1.36-1.36l7.751-7.751l1.395,1.395l-1.417,9.344l5.38-5.381
				l1.359,1.359l-7.751,7.751L57.571,329.03z"/>
		</g>
		<g>
			<path fill="#6DBCD7" d="M186.141,549.101V538.14h4.404c2.202,0,3.435,1.512,3.435,3.303s-1.265,3.304-3.435,3.304h-3.04v4.354
				H186.141z M192.567,541.442c0-1.232-0.888-2.087-2.186-2.087h-2.875v4.174h2.875
				C191.679,543.529,192.567,542.675,192.567,541.442z"/>
			<path fill="#6DBCD7" d="M200.788,549.101v-0.904c-0.657,0.724-1.561,1.102-2.629,1.102c-1.347,0-2.777-0.904-2.777-2.63
				c0-1.774,1.43-2.612,2.777-2.612c1.085,0,1.989,0.345,2.629,1.084v-1.43c0-1.067-0.854-1.676-2.005-1.676
				c-0.953,0-1.726,0.345-2.432,1.101l-0.575-0.854c0.854-0.887,1.874-1.314,3.172-1.314c1.676,0,3.073,0.756,3.073,2.679v5.456
				H200.788z M200.788,547.425v-1.496c-0.477-0.657-1.314-0.986-2.186-0.986c-1.15,0-1.956,0.724-1.956,1.742
				c0,1.003,0.805,1.726,1.956,1.726C199.473,548.41,200.311,548.082,200.788,547.425z"/>
			<path fill="#6DBCD7" d="M204.9,549.101V538.14h1.232v10.961H204.9z"/>
			<path fill="#6DBCD7" d="M208.55,545.124c0-2.301,1.512-4.158,3.928-4.158c2.416,0,3.928,1.857,3.928,4.158
				s-1.512,4.174-3.928,4.174C210.062,549.298,208.55,547.425,208.55,545.124z M215.107,545.124c0-1.611-0.937-3.057-2.629-3.057
				c-1.693,0-2.646,1.445-2.646,3.057c0,1.627,0.953,3.072,2.646,3.072C214.17,548.196,215.107,546.751,215.107,545.124z"/>
			<path fill="#6DBCD7" d="M231.351,549.101l-0.97-2.433h-5.456l-0.97,2.433h-1.561l4.404-10.961h1.692l4.421,10.961H231.351z
				 M227.653,539.553l-2.333,5.899h4.65L227.653,539.553z"/>
			<path fill="#6DBCD7" d="M234.708,549.101V538.14h1.232v10.961H234.708z"/>
			<path fill="#6DBCD7" d="M239.064,547.44v-5.192h-1.314v-1.085h1.314v-2.169h1.232v2.169h1.611v1.085h-1.611v4.93
				c0,0.592,0.263,1.019,0.805,1.019c0.345,0,0.674-0.147,0.838-0.328l0.361,0.92c-0.312,0.296-0.756,0.51-1.479,0.51
				C239.656,549.298,239.064,548.624,239.064,547.44z"/>
			<path fill="#6DBCD7" d="M243.602,545.124c0-2.301,1.512-4.158,3.928-4.158c2.416,0,3.928,1.857,3.928,4.158
				s-1.512,4.174-3.928,4.174C245.114,549.298,243.602,547.425,243.602,545.124z M250.159,545.124c0-1.611-0.937-3.057-2.629-3.057
				c-1.693,0-2.646,1.445-2.646,3.057c0,1.627,0.953,3.072,2.646,3.072C249.222,548.196,250.159,546.751,250.159,545.124z"/>
		</g>
		<g>
			<path fill="#FFF200" d="M501.775,155.78l-2.416-8.842l-2.416,8.842h-1.479l-3.122-10.962h1.512l2.432,9.138l2.515-9.138h1.134
				l2.515,9.138l2.416-9.138h1.512l-3.123,10.962H501.775z"/>
			<path fill="#FFF200" d="M508.06,145.887c0-0.46,0.378-0.838,0.822-0.838c0.46,0,0.838,0.378,0.838,0.838
				s-0.378,0.822-0.838,0.822C508.438,146.709,508.06,146.347,508.06,145.887z M508.273,155.78v-7.938h1.232v7.938H508.273z"/>
			<path fill="#FFF200" d="M512.383,155.78v-10.962h1.232v10.962H512.383z"/>
			<path fill="#FFF200" d="M516.493,155.78v-10.962h1.232v10.962H516.493z"/>
			<path fill="#FFF200" d="M520.144,151.803c0-2.301,1.512-4.157,3.928-4.157s3.928,1.856,3.928,4.157s-1.512,4.175-3.928,4.175
				S520.144,154.104,520.144,151.803z M526.7,151.803c0-1.61-0.937-3.057-2.629-3.057s-2.646,1.446-2.646,3.057
				c0,1.627,0.953,3.073,2.646,3.073S526.7,153.43,526.7,151.803z"/>
			<path fill="#FFF200" d="M537.288,155.78l-2.07-6.377l-2.07,6.377h-1.233l-2.53-7.938h1.282l1.938,6.327l2.087-6.327h1.052
				l2.088,6.327l1.938-6.327h1.282l-2.531,7.938H537.288z"/>
			<path fill="#FFF200" d="M547.6,155.78v-10.962h7.181v1.217h-5.817v3.533h5.703v1.216h-5.703v3.779h5.817v1.217H547.6z"/>
			<path fill="#FFF200" d="M562.459,155.78l-2.383-3.254l-2.383,3.254h-1.413l3.04-4.076l-2.876-3.861h1.43l2.202,3.023l2.202-3.023
				h1.43l-2.876,3.861l3.057,4.076H562.459z"/>
			<path fill="#FFF200" d="M565.503,145.887c0-0.46,0.378-0.838,0.822-0.838c0.46,0,0.838,0.378,0.838,0.838
				s-0.378,0.822-0.838,0.822C565.881,146.709,565.503,146.347,565.503,145.887z M565.717,155.78v-7.938h1.232v7.938H565.717z"/>
			<path fill="#FFF200" d="M570.074,154.12v-5.193h-1.315v-1.084h1.315v-2.17h1.232v2.17h1.61v1.084h-1.61v4.931
				c0,0.592,0.263,1.019,0.805,1.019c0.346,0,0.674-0.147,0.838-0.328l0.362,0.92c-0.312,0.296-0.756,0.51-1.479,0.51
				C570.665,155.978,570.074,155.304,570.074,154.12z"/>
			<path fill="#FFF200" d="M588.155,155.78l-2.416-8.842l-2.416,8.842h-1.479l-3.122-10.962h1.512l2.432,9.138l2.515-9.138h1.134
				l2.515,9.138l2.416-9.138h1.512l-3.123,10.962H588.155z"/>
		</g>
		<polyline fill="none" stroke="#999999" stroke-miterlimit="10" points="259.833,82.718 215.495,38.379 171.552,82.321 		"/>
		<g>
			<path fill="#999999" d="M221.019,91.233l-10.625-14.496v14.496h-1.442V74.359h1.468l10.575,14.294V74.359h1.442v16.874H221.019z"
				/>
		</g>
	</g>
</g>
</svg>
